# xmcd
#
# Track frame offsets:
#	150
#	18033
#	35130
#	44602
#	63890
#	79122
#	95371
#	114947
#	124067
#	148972
#
# Disc length: 2179 seconds
#
# Revision: 0
# Processed by: cddbd v1.5.2PL0 Copyright (c) Steve Scherf et al.
# Submitted via: audiograbber 1.82.02
#
DISCID=8208810a
DTITLE=Bill Withers - Greatest Hits
DYEAR=1981
DGENRE=Soul
TTITLE0=Just The Two Of Us
TTITLE1=Use Me
TTITLE2=Ain't No Sunshine
TTITLE3=Lovely Day
TTITLE4=I Want To Spend The Night
TTITLE5=Soul Shadows
TTITLE6=Lean On Me
TTITLE7=Grandma's Hands
TTITLE8=Who Is He What Is He To You
TTITLE9=Hello Like Before
EXTD=YEAR: 1981
EXTT0=
EXTT1=
EXTT2=
EXTT3=
EXTT4=
EXTT5=
EXTT6=
EXTT7=
EXTT8=
EXTT9=
PLAYORDER=
